<svg xmlns="http://www.w3.org/2000/svg" viewBox="416.25 356.31 251.72 251.72">
  <path fill="#063590" fill-rule="evenodd" d="M 619.7333333333333,381.06666666666666 C 619.4333333333334,381.3666666666666 619.3333333333334,398.56666666666666 619.3333333333333,456.3666666666667 C 619.3333333333333,538.7666666666667 619.4666666666667,533.9666666666666 617.3,538.0 C 614.6333333333333,543.0333333333333 610.4,545.2666666666667 604.3333333333333,544.9 C 602.6333333333333,544.8 600.7666666666667,544.4666666666667 599.6,544.0333333333333 C 597.6333333333333,543.2666666666667 590.8666666666667,538.3 576.1666666666666,526.8333333333333 C 574.1666666666666,525.2666666666667 569.8666666666667,521.9333333333333 566.6666666666666,519.4666666666667 C 563.4666666666667,517.0 559.4,513.8666666666667 557.6666666666666,512.4666666666667 C 555.9333333333333,511.0666666666666 552.7,508.59999999999997 550.5,506.9333333333333 C 548.3,505.26666666666665 545.9666666666667,503.46666666666664 545.3333333333334,502.96666666666664 C 544.7,502.43333333333334 542.8333333333334,500.93333333333334 541.1666666666666,499.6 C 539.5333333333333,498.26666666666665 536.1333333333333,495.66666666666663 533.6666666666666,493.8333333333333 C 531.2,491.96666666666664 526.8333333333334,488.6 524.0,486.29999999999995 C 518.4333333333334,481.8666666666667 518.5,481.9 510.3333333333333,475.66666666666663 C 507.3,473.3666666666667 503.26666666666665,470.23333333333335 501.3333333333333,468.7 C 499.4,467.1666666666667 496.03333333333336,464.56666666666666 493.8333333333333,462.9333333333333 C 491.6333333333333,461.26666666666665 488.6,458.9333333333333 487.1,457.76666666666665 C 485.56666666666666,456.56666666666666 484.2,455.7 484.0,455.8333333333333 C 483.6,456.06666666666666 483.5333333333333,482.9333333333333 483.93333333333334,483.5333333333333 C 484.06666666666666,483.73333333333335 486.8666666666667,485.93333333333334 490.1666666666667,488.43333333333334 C 493.4666666666667,490.93333333333334 497.6,494.1333333333333 499.3333333333333,495.5333333333333 C 501.06666666666666,496.9 504.5333333333333,499.6 507.0333333333333,501.5 C 509.5,503.3666666666667 511.76666666666665,505.1333333333333 512.0333333333333,505.3666666666667 C 512.3,505.6333333333333 513.7,506.73333333333335 515.1666666666666,507.8333333333333 C 516.6333333333333,508.9333333333333 518.6333333333333,510.5 519.6,511.29999999999995 C 520.5666666666666,512.1333333333333 522.4666666666667,513.6333333333333 523.8,514.6333333333333 C 527.6333333333333,517.5666666666666 532.7666666666667,521.5666666666666 537.3333333333334,525.1666666666666 C 543.3666666666667,529.9 552.2,536.7666666666667 555.8666666666667,539.5333333333333 C 557.5666666666667,540.8333333333333 559.7666666666667,542.5666666666666 560.7333333333333,543.4 C 561.7,544.2 564.0,546.0333333333333 565.8333333333334,547.4333333333334 C 567.6666666666666,548.8333333333334 571.1333333333333,551.5 573.5,553.3666666666667 C 577.3,556.3333333333334 581.8333333333334,559.7333333333333 585.2666666666667,562.2666666666667 C 587.0333333333333,563.5666666666667 592.3,565.9 595.0,566.5999999999999 C 600.4,568.0 601.2666666666667,568.0999999999999 606.0,568.1333333333333 C 616.5666666666667,568.1666666666666 624.2333333333333,564.8666666666667 632.1666666666666,556.8666666666667 C 635.5666666666666,553.4333333333333 635.9666666666667,552.8666666666667 637.7,549.3333333333333 C 639.7,545.2666666666667 640.6333333333333,542.5666666666666 641.5333333333333,538.0 C 642.0666666666666,535.3666666666667 642.1333333333333,529.3333333333334 642.2,458.66666666666663 C 642.2666666666667,413.59999999999997 642.1666666666666,381.8666666666666 642.0,381.4 L 641.7,380.6666666666667 L 630.9,380.6666666666667 C 622.9666666666667,380.6666666666667 620.0333333333333,380.76666666666665 619.7333333333333,381.06666666666666 M 472.8333333333333,411.96666666666664 C 467.3333333333333,412.96666666666664 462.06666666666666,415.1333333333333 457.43333333333334,418.26666666666665 C 451.9,422.0333333333333 446.3333333333333,429.6666666666667 444.1333333333333,436.5 C 441.8666666666667,443.59999999999997 442.0,438.6666666666667 442.0,514.2666666666667 C 442.0,560.5666666666667 442.1,582.5999999999999 442.3333333333333,583.0333333333333 C 442.6666666666667,583.6333333333333 443.1666666666667,583.6666666666666 453.5,583.6666666666666 C 463.76666666666665,583.6666666666666 464.3333333333333,583.6333333333333 464.6333333333333,583.0333333333333 C 464.8666666666667,582.6333333333333 464.96666666666664,559.7 464.93333333333334,514.6333333333333 C 464.9,461.7 465.0,446.5 465.3,445.3333333333333 C 467.56666666666666,437.2 475.4666666666667,432.76666666666665 483.8666666666667,434.96666666666664 C 487.6666666666667,435.93333333333334 490.3,437.59999999999997 499.8333333333333,445.0 C 509.4666666666667,452.5 513.1,455.3 517.8333333333334,458.96666666666664 C 519.5,460.23333333333335 522.3333333333334,462.46666666666664 524.1666666666666,463.9 C 526.0,465.3333333333333 528.7,467.4 530.1666666666666,468.5 C 532.7666666666667,470.43333333333334 536.2,473.1333333333333 544.4666666666667,479.66666666666663 C 546.6666666666666,481.4 549.0666666666667,483.26666666666665 549.8666666666667,483.8333333333333 C 550.6333333333333,484.3666666666667 553.1,486.29999999999995 555.3666666666667,488.06666666666666 C 563.0,494.0333333333333 568.5666666666667,498.3666666666667 573.3666666666667,502.0333333333333 C 575.1333333333333,503.4 578.6666666666666,506.1333333333333 581.2,508.1333333333333 C 583.7666666666667,510.1333333333333 587.4,513.0 589.3333333333333,514.4666666666667 C 591.2666666666667,515.9333333333333 594.4,518.4 596.3,519.9333333333333 C 598.2,521.4333333333333 599.9666666666667,522.6666666666666 600.2666666666667,522.5999999999999 C 600.7,522.5 600.7666666666667,520.6333333333333 600.8666666666667,508.7 L 601.0,494.9 L 599.9,493.8666666666667 C 599.3,493.29999999999995 596.1666666666666,490.8333333333333 592.9666666666667,488.43333333333334 C 586.9,483.8333333333333 575.8333333333333,475.3 571.8333333333333,472.16666666666663 C 570.5666666666666,471.16666666666663 566.9333333333333,468.3333333333333 563.8,465.9333333333333 C 560.6333333333333,463.5 557.2,460.8333333333333 556.1666666666666,460.0 C 555.1,459.1666666666667 552.8,457.3666666666667 551.0,456.0 C 549.2333333333333,454.6333333333333 546.4333333333334,452.46666666666664 544.8,451.16666666666663 C 537.1666666666666,445.2 534.1,442.8333333333333 524.2,435.09999999999997 C 518.3666666666667,430.56666666666666 511.9,425.5333333333333 509.8666666666667,423.93333333333334 C 506.2,421.0333333333333 500.56666666666666,417.0 500.2,417.0 C 500.1,417.0 499.3,416.56666666666666 498.43333333333334,416.06666666666666 C 491.43333333333334,412.0 481.3666666666667,410.4 472.8333333333333,411.96666666666664"/>
</svg>
